<?xml version="1.0" encoding="utf-8"?>
<!-- Generator: Adobe Illustrator 24.1.2, SVG Export Plug-In . SVG Version: 6.00 Build 0)  -->
<svg version="1.1" xmlns="http://www.w3.org/2000/svg" xmlns:xlink="http://www.w3.org/1999/xlink" x="0px" y="0px"
	 viewBox="0 0 2000 2000" style="enable-background:new 0 0 2000 2000;" xml:space="preserve">
<style type="text/css">
	.st0{display:none;}
	.st1{display:inline;fill:#FCB4F2;}
	.st2{fill:#39929E;}
	.st3{fill:#2CF5FF;}
	.st4{fill:#7A1456;}
	.st5{fill:none;}
	.st6{fill:url(#SVGID_1_);}
	.st7{fill:url(#SVGID_2_);}
	.st8{fill:url(#SVGID_3_);}
	.st9{fill:url(#SVGID_4_);}
	.st10{fill:url(#SVGID_5_);}
	.st11{fill:url(#SVGID_6_);}
	.st12{fill:url(#SVGID_7_);}
	.st13{fill:url(#SVGID_8_);}
	.st14{fill:url(#SVGID_9_);}
	.st15{fill:url(#SVGID_10_);}
	.st16{fill:url(#SVGID_11_);}
	.st17{fill:url(#SVGID_12_);}
	.st18{fill:url(#SVGID_13_);}
	.st19{fill:url(#SVGID_14_);}
	.st20{fill:url(#SVGID_15_);}
	.st21{fill:url(#SVGID_16_);}
	.st22{fill:url(#SVGID_17_);}
</style>
<g id="Слой_2" class="st0">
	<rect y="0" class="st1" width="2000" height="2000"/>
</g>
<g id="Слой_1">
	<path class="st2" d="M1437,1161.6l4.3-32.7l34.6-4.9l-4.3,32.7L1437,1161.6 M1531.3,1014.2l-32.2,4.5c-3.9,0.5-6.6,1.9-8.1,3.9
		c-1.5,2.1-2.5,5.3-2.9,9.5l-4,31.6l-34.6,4.9l4-31.6c0.4-4.2-0.3-7.2-2.3-8.8c-1.9-1.6-4.8-2.1-8.7-1.6l-32.2,4.5
		c-3.9,0.5-6.6,1.9-8.1,3.9c-1.5,2.1-2.5,5.3-2.9,9.5l-4,31.6l-20.8,2.9c-3.9,0.5-6.7,1.9-8.4,4c-1.7,2.1-2.6,5.3-2.6,9.5l-0.1,35.4
		c0,4.2,0.9,7.1,2.6,8.7c1.7,1.6,4.5,2.2,8.4,1.6l12.9-1.8l-4.3,32.7l-19.6,2.8c-3.9,0.5-6.7,1.9-8.4,4s-2.6,5.3-2.6,9.5l-0.1,35.4
		c0,4.2,0.9,7.1,2.6,8.7c1.7,1.6,4.5,2.2,8.4,1.6l11.6-1.6l-4.3,33.3c-0.4,4.2,0.3,7.2,2.3,8.8c1.9,1.6,4.8,2.1,8.7,1.6l32.2-4.5
		c3.9-0.5,6.6-1.9,8.1-4c1.5-2.1,2.5-5.3,2.9-9.5l4.3-33.3l34.6-4.9l-4.3,33.3c-0.4,4.2,0.3,7.2,2.3,8.8c1.9,1.6,4.8,2.1,8.7,1.6
		l32.2-4.5c3.9-0.5,6.6-1.9,8.1-4c1.5-2.1,2.5-5.3,2.9-9.5l4.3-33.3l20.5-2.9c3.9-0.5,6.7-1.9,8.4-4c1.7-2.1,2.6-5.3,2.6-9.5
		l0.1-35.4c0-4.2-0.9-7.1-2.6-8.7c-1.7-1.6-4.5-2.2-8.4-1.6l-12.6,1.8l4.3-32.7l19.3-2.7c3.9-0.5,6.7-1.9,8.4-4s2.6-5.3,2.6-9.5
		l0.1-35.4c0-4.2-0.9-7.1-2.6-8.7c-1.7-1.6-4.5-2.2-8.4-1.6l-11.3,1.6l4-31.6c0.4-4.2-0.3-7.2-2.3-8.8
		C1538.1,1014.2,1535.2,1013.6,1531.3,1014.2"/>
	<path class="st3" d="M1406.1,1123.3l4.3-32.7l34.6-4.9l-4.3,32.7L1406.1,1123.3 M1500.4,975.8l-32.2,4.5c-3.9,0.5-6.6,1.9-8.1,4
		c-1.5,2.1-2.5,5.3-2.9,9.5l-4,31.6l-34.6,4.9l4-31.6c0.4-4.2-0.3-7.2-2.3-8.8c-1.9-1.6-4.9-2.1-8.7-1.6l-32.2,4.5
		c-3.9,0.5-6.6,1.9-8.1,4c-1.5,2.1-2.5,5.3-2.9,9.5l-4,31.6l-20.8,2.9c-3.9,0.5-6.7,1.9-8.4,4c-1.7,2.1-2.6,5.3-2.6,9.5l-0.1,35.4
		c0,4.2,0.9,7.1,2.6,8.7c1.7,1.6,4.5,2.2,8.4,1.6l12.9-1.8l-4.3,32.7l-19.6,2.8c-3.9,0.5-6.7,1.9-8.4,4c-1.7,2.1-2.6,5.3-2.6,9.5
		l-0.1,35.4c0,4.2,0.9,7.1,2.6,8.7c1.7,1.6,4.5,2.2,8.4,1.6l11.6-1.6l-4.3,33.3c-0.4,4.3,0.3,7.2,2.3,8.8c1.9,1.6,4.8,2.1,8.7,1.6
		l32.2-4.5c3.9-0.5,6.6-1.9,8.1-3.9s2.5-5.3,2.9-9.5l4.3-33.3l34.6-4.9l-4.3,33.3c-0.4,4.3,0.3,7.2,2.3,8.8c1.9,1.6,4.8,2.1,8.7,1.6
		l32.2-4.5c3.9-0.5,6.6-1.9,8.1-3.9c1.5-2.1,2.5-5.3,2.9-9.5l4.3-33.3l20.5-2.9c3.9-0.5,6.7-1.9,8.4-4c1.7-2.1,2.6-5.3,2.6-9.5
		l0.1-35.4c0-4.2-0.9-7.1-2.6-8.7c-1.7-1.6-4.5-2.2-8.4-1.6l-12.6,1.8l4.3-32.7l19.3-2.7c3.9-0.5,6.7-1.9,8.4-4
		c1.7-2.1,2.6-5.3,2.6-9.5l0.1-35.4c0-4.2-0.9-7.1-2.6-8.7c-1.7-1.6-4.5-2.2-8.4-1.6l-11.3,1.6l4-31.6c0.4-4.2-0.3-7.2-2.3-8.8
		C1507.2,975.8,1504.3,975.3,1500.4,975.8"/>
	<path class="st2" d="M1319.5,1040l-136.6,19.2c-3.9,0.5-6.7,1.9-8.4,4c-1.7,2.1-2.6,5.3-2.6,9.5l-0.4,214.2c0,4.2,0.9,7.1,2.6,8.7
		c1.7,1.6,4.5,2.2,8.4,1.6l47.5-6.7c3.9-0.5,6.7-1.9,8.4-4c1.7-2.1,2.6-5.3,2.6-9.5l0.1-65.1l53.3-7.5c3.9-0.5,6.7-1.9,8.4-4
		c1.7-2.1,2.6-5.3,2.6-9.5l0.1-39.7c0-4.2-0.9-7.1-2.6-8.7c-1.7-1.6-4.5-2.2-8.4-1.6l-53.3,7.5l0.1-34.4l78.1-11
		c3.9-0.5,6.7-1.9,8.4-4c1.7-2.1,2.6-5.3,2.6-9.5l0.1-39.3c0-4.2-0.9-7.1-2.6-8.7C1326.1,1040,1323.3,1039.4,1319.5,1040"/>
	<path class="st3" d="M1302.5,1003.6l-136.6,19.2c-3.9,0.5-6.7,1.9-8.4,4c-1.7,2.1-2.6,5.3-2.6,9.5l-0.4,214.2
		c0,4.2,0.9,7.1,2.6,8.7c1.7,1.6,4.5,2.2,8.4,1.6l47.5-6.7c3.9-0.5,6.7-1.9,8.4-4c1.7-2.1,2.6-5.3,2.6-9.5l0.1-65.1l53.3-7.5
		c3.9-0.5,6.7-1.9,8.4-4c1.7-2.1,2.6-5.3,2.6-9.5l0.1-39.7c0-4.2-0.9-7.1-2.6-8.7c-1.7-1.6-4.5-2.2-8.4-1.6l-53.3,7.5l0.1-34.4
		l78.1-11c3.9-0.5,6.7-1.9,8.4-4c1.7-2.1,2.6-5.3,2.6-9.5l0.1-39.3c0-4.2-0.9-7.1-2.6-8.7S1306.4,1003.1,1302.5,1003.6"/>
	<path class="st4" d="M-3050.6-1621.8"/>
	<polygon class="st5" points="541.8,1380.5 542.2,1141.7 1489.7,1008.6 1489.2,1247.3 	"/>
	<polygon class="st5" points="510.3,1342.8 510.8,1104 1458.2,970.9 1457.8,1209.6 	"/>
	<linearGradient id="SVGID_1_" gradientUnits="userSpaceOnUse" x1="599.8629" y1="1334.4974" x2="643.4925" y2="1410.0662">
		<stop  offset="0" style="stop-color:#ED1C24"/>
		<stop  offset="0.2732" style="stop-color:#F04022;stop-opacity:0.7268"/>
		<stop  offset="0.7649" style="stop-color:#F57C1F;stop-opacity:0.2351"/>
		<stop  offset="1" style="stop-color:#F7931E;stop-opacity:0"/>
	</linearGradient>
	<path class="st6" d="M621.2,1368.5c-0.5,0.6-1.3,2.8-1.3,3.7C620.3,1371,620.7,1369.8,621.2,1368.5z"/>
	<linearGradient id="SVGID_2_" gradientUnits="userSpaceOnUse" x1="606.0795" y1="1330.9083" x2="649.7091" y2="1406.4769">
		<stop  offset="0" style="stop-color:#ED1C24"/>
		<stop  offset="0.2732" style="stop-color:#F04022;stop-opacity:0.7268"/>
		<stop  offset="0.7649" style="stop-color:#F57C1F;stop-opacity:0.2351"/>
		<stop  offset="1" style="stop-color:#F7931E;stop-opacity:0"/>
	</linearGradient>
	<path class="st7" d="M617.7,1352c0.1,0.1,0.3,0.1,0.5,0.2c0-0.3,0.1-0.6,0.1-1C617.9,1351.2,617.8,1351.3,617.7,1352z"/>
	<linearGradient id="SVGID_3_" gradientUnits="userSpaceOnUse" x1="607.6083" y1="1330.0258" x2="651.2379" y2="1405.5944">
		<stop  offset="0" style="stop-color:#ED1C24"/>
		<stop  offset="0.2732" style="stop-color:#F04022;stop-opacity:0.7268"/>
		<stop  offset="0.7649" style="stop-color:#F57C1F;stop-opacity:0.2351"/>
		<stop  offset="1" style="stop-color:#F7931E;stop-opacity:0"/>
	</linearGradient>
	<path class="st8" d="M620.6,1352.2c0,0.3-0.1,0.5,0,0.8c0,0.1,0.2,0.2,0.3,0.2c0.1,0,0.3-0.1,0.5-0.1
		C621,1352.8,620.8,1352.5,620.6,1352.2z"/>
	<linearGradient id="SVGID_4_" gradientUnits="userSpaceOnUse" x1="603.7342" y1="1332.2625" x2="647.3637" y2="1407.8311">
		<stop  offset="0" style="stop-color:#ED1C24"/>
		<stop  offset="0.2732" style="stop-color:#F04022;stop-opacity:0.7268"/>
		<stop  offset="0.7649" style="stop-color:#F57C1F;stop-opacity:0.2351"/>
		<stop  offset="1" style="stop-color:#F7931E;stop-opacity:0"/>
	</linearGradient>
	<path class="st9" d="M616.9,1355.6C616.9,1355.6,616.9,1355.7,616.9,1355.6c-0.1,0.1,0,0.3,0,0.3c0.3,0.2,0.6,0.6,1,0.3
		C617.6,1356,617.3,1355.8,616.9,1355.6z"/>
	<linearGradient id="SVGID_5_" gradientUnits="userSpaceOnUse" x1="613.7063" y1="1326.505" x2="657.3359" y2="1402.0737">
		<stop  offset="0" style="stop-color:#ED1C24"/>
		<stop  offset="0.2732" style="stop-color:#F04022;stop-opacity:0.7268"/>
		<stop  offset="0.7649" style="stop-color:#F57C1F;stop-opacity:0.2351"/>
		<stop  offset="1" style="stop-color:#F7931E;stop-opacity:0"/>
	</linearGradient>
	<path class="st10" d="M636.9,1364.9C636.9,1364.9,636.9,1364.9,636.9,1364.9c-0.4,0.4-0.8,0.8-1.2,1.2c-0.1,0.1,0,0.2-0.1,0.3
		c0,0,0.1,0,0.1,0C636.2,1366,636.6,1365.4,636.9,1364.9z"/>
	<linearGradient id="SVGID_6_" gradientUnits="userSpaceOnUse" x1="598.6674" y1="1335.1877" x2="642.297" y2="1410.7563">
		<stop  offset="0" style="stop-color:#ED1C24"/>
		<stop  offset="0.2732" style="stop-color:#F04022;stop-opacity:0.7268"/>
		<stop  offset="0.7649" style="stop-color:#F57C1F;stop-opacity:0.2351"/>
		<stop  offset="1" style="stop-color:#F7931E;stop-opacity:0"/>
	</linearGradient>
	<path class="st11" d="M603.1,1340.8C603.1,1340.8,603,1340.8,603.1,1340.8c-0.5,0.5-0.9,1.1-1.4,1.6c0.1,0,0.1,0.1,0.2,0.1
		C602.3,1342,602.7,1341.4,603.1,1340.8z"/>
	<linearGradient id="SVGID_7_" gradientUnits="userSpaceOnUse" x1="596.5975" y1="1336.3828" x2="640.2271" y2="1411.9514">
		<stop  offset="0" style="stop-color:#ED1C24"/>
		<stop  offset="0.2732" style="stop-color:#F04022;stop-opacity:0.7268"/>
		<stop  offset="0.7649" style="stop-color:#F57C1F;stop-opacity:0.2351"/>
		<stop  offset="1" style="stop-color:#F7931E;stop-opacity:0"/>
	</linearGradient>
	<path class="st12" d="M622.7,1382.6c0.1,0,0.1,0,0.2,0c-0.2-0.8-0.3-1.7-0.5-2.5c0,0-0.1,0-0.1,0
		C622.5,1381,622.6,1381.8,622.7,1382.6z"/>
	<linearGradient id="SVGID_8_" gradientUnits="userSpaceOnUse" x1="604.7674" y1="1331.6659" x2="648.397" y2="1407.2345">
		<stop  offset="0" style="stop-color:#ED1C24"/>
		<stop  offset="0.2732" style="stop-color:#F04022;stop-opacity:0.7268"/>
		<stop  offset="0.7649" style="stop-color:#F57C1F;stop-opacity:0.2351"/>
		<stop  offset="1" style="stop-color:#F7931E;stop-opacity:0"/>
	</linearGradient>
	<path class="st13" d="M625.7,1368.1C625.7,1368.1,625.8,1368.1,625.7,1368.1c-0.4-0.9-0.8-1.7-1.3-2.6c0,0-0.1,0-0.1,0.1
		C624.8,1366.4,625.2,1367.3,625.7,1368.1z"/>
	<linearGradient id="SVGID_9_" gradientUnits="userSpaceOnUse" x1="603.0536" y1="1332.6554" x2="646.6832" y2="1408.224">
		<stop  offset="0" style="stop-color:#ED1C24"/>
		<stop  offset="0.2732" style="stop-color:#F04022;stop-opacity:0.7268"/>
		<stop  offset="0.7649" style="stop-color:#F57C1F;stop-opacity:0.2351"/>
		<stop  offset="1" style="stop-color:#F7931E;stop-opacity:0"/>
	</linearGradient>
	<path class="st14" d="M625.6,1371.9C625.6,1371.9,625.7,1371.9,625.6,1371.9c-0.3-0.8-0.7-1.5-1.1-2.3c0,0-0.1,0-0.1,0.1
		C624.8,1370.5,625.2,1371.2,625.6,1371.9z"/>
	<linearGradient id="SVGID_10_" gradientUnits="userSpaceOnUse" x1="605.387" y1="1331.3081" x2="649.0166" y2="1406.8768">
		<stop  offset="0" style="stop-color:#ED1C24"/>
		<stop  offset="0.2732" style="stop-color:#F04022;stop-opacity:0.7268"/>
		<stop  offset="0.7649" style="stop-color:#F57C1F;stop-opacity:0.2351"/>
		<stop  offset="1" style="stop-color:#F7931E;stop-opacity:0"/>
	</linearGradient>
	<path class="st15" d="M617.2,1351.8c0.1-0.2,0.1-0.4,0.2-0.6c-0.4-0.1-0.6,0-0.7,0.4C616.8,1351.7,617,1351.8,617.2,1351.8z"/>
	<linearGradient id="SVGID_11_" gradientUnits="userSpaceOnUse" x1="604.1226" y1="1332.0382" x2="647.7522" y2="1407.6068">
		<stop  offset="0" style="stop-color:#ED1C24"/>
		<stop  offset="0.2732" style="stop-color:#F04022;stop-opacity:0.7268"/>
		<stop  offset="0.7649" style="stop-color:#F57C1F;stop-opacity:0.2351"/>
		<stop  offset="1" style="stop-color:#F7931E;stop-opacity:0"/>
	</linearGradient>
	<path class="st16" d="M618.3,1356.1c0-0.1,0.1-0.1,0.1-0.2c-0.4-0.2-0.8-0.4-1.2-0.6c0,0,0,0.1-0.1,0.1
		C617.5,1355.7,617.9,1355.9,618.3,1356.1z"/>
	<linearGradient id="SVGID_12_" gradientUnits="userSpaceOnUse" x1="605.8311" y1="1331.0518" x2="649.4607" y2="1406.6204">
		<stop  offset="0" style="stop-color:#ED1C24"/>
		<stop  offset="0.2732" style="stop-color:#F04022;stop-opacity:0.7268"/>
		<stop  offset="0.7649" style="stop-color:#F57C1F;stop-opacity:0.2351"/>
		<stop  offset="1" style="stop-color:#F7931E;stop-opacity:0"/>
	</linearGradient>
	<path class="st17" d="M620.3,1355.2C620.3,1355.2,620.3,1355.1,620.3,1355.2c-0.4-0.3-0.9-0.6-1.4-0.8c0,0-0.1,0.1-0.1,0.1
		C619.3,1354.7,619.8,1355,620.3,1355.2z"/>
	<linearGradient id="SVGID_13_" gradientUnits="userSpaceOnUse" x1="607.3375" y1="1330.182" x2="650.9671" y2="1405.7507">
		<stop  offset="0" style="stop-color:#ED1C24"/>
		<stop  offset="0.2732" style="stop-color:#F04022;stop-opacity:0.7268"/>
		<stop  offset="0.7649" style="stop-color:#F57C1F;stop-opacity:0.2351"/>
		<stop  offset="1" style="stop-color:#F7931E;stop-opacity:0"/>
	</linearGradient>
	<path class="st18" d="M620.1,1352.9c0.5-0.2,0.3-0.5,0.3-0.8C619.9,1352.3,620.2,1352.6,620.1,1352.9z"/>
	<linearGradient id="SVGID_14_" gradientUnits="userSpaceOnUse" x1="605.2984" y1="1331.3594" x2="648.9279" y2="1406.928">
		<stop  offset="0" style="stop-color:#ED1C24"/>
		<stop  offset="0.2732" style="stop-color:#F04022;stop-opacity:0.7268"/>
		<stop  offset="0.7649" style="stop-color:#F57C1F;stop-opacity:0.2351"/>
		<stop  offset="1" style="stop-color:#F7931E;stop-opacity:0"/>
	</linearGradient>
	<path class="st19" d="M618.5,1354.9c0.3,0.4,0.8,0.7,1.1,0.6C619.2,1355.3,618.9,1355.1,618.5,1354.9z"/>
	<linearGradient id="SVGID_15_" gradientUnits="userSpaceOnUse" x1="606.8929" y1="1330.4387" x2="650.5225" y2="1406.0073">
		<stop  offset="0" style="stop-color:#ED1C24"/>
		<stop  offset="0.2732" style="stop-color:#F04022;stop-opacity:0.7268"/>
		<stop  offset="0.7649" style="stop-color:#F57C1F;stop-opacity:0.2351"/>
		<stop  offset="1" style="stop-color:#F7931E;stop-opacity:0"/>
	</linearGradient>
	<path class="st20" d="M619,1352c0,0,0.1,0,0.1,0.1c0.1-0.1,0.2-0.3,0.2-0.4c0-0.1-0.1-0.2-0.1-0.3c0,0-0.1,0-0.1,0.1
		C619.1,1351.6,619.1,1351.8,619,1352z"/>
	<linearGradient id="SVGID_16_" gradientUnits="userSpaceOnUse" x1="606.996" y1="1330.3792" x2="650.6256" y2="1405.9479">
		<stop  offset="0" style="stop-color:#ED1C24"/>
		<stop  offset="0.2732" style="stop-color:#F04022;stop-opacity:0.7268"/>
		<stop  offset="0.7649" style="stop-color:#F57C1F;stop-opacity:0.2351"/>
		<stop  offset="1" style="stop-color:#F7931E;stop-opacity:0"/>
	</linearGradient>
	<path class="st21" d="M619.7,1352.8c0-0.2,0-0.5,0.1-0.8C619.4,1352.3,619.4,1352.6,619.7,1352.8z"/>
	<linearGradient id="SVGID_17_" gradientUnits="userSpaceOnUse" x1="602.6451" y1="1332.8911" x2="646.2747" y2="1408.4598">
		<stop  offset="0" style="stop-color:#ED1C24"/>
		<stop  offset="0.2732" style="stop-color:#F04022;stop-opacity:0.7268"/>
		<stop  offset="0.7649" style="stop-color:#F57C1F;stop-opacity:0.2351"/>
		<stop  offset="1" style="stop-color:#F7931E;stop-opacity:0"/>
	</linearGradient>
	<path class="st22" d="M621.1,1363.8c0,0-0.1,0-0.1,0c-0.2,0.4-0.4,0.8-0.6,1.2c0,0,0.1,0,0.1,0
		C620.8,1364.6,620.9,1364.2,621.1,1363.8z"/>
	<path class="st2" d="M780.9,1118.5l-46.6,6.5c-3.9,0.5-6.7,1.9-8.4,4c-1.7,2.1-2.6,5.3-2.6,9.5l-0.3,150.8c0,4.4-1.5,8.3-4.6,11.7
		c-3.1,3.4-10,5.9-20.8,7.4c-10.6,1.5-17.5,1-20.5-1.6c-3.1-2.6-4.6-6-4.6-10.4l0.3-150.8c0-4.2-0.9-7.1-2.6-8.7
		c-1.7-1.6-4.5-2.2-8.4-1.6l-48.1,6.8c-3.9,0.5-6.7,1.9-8.4,4c-1.7,2.1-2.6,5.3-2.6,9.5l-0.3,163.6c0,10.1,1.3,19.1,4.1,27
		c2.7,7.9,7.6,14.2,14.7,19.1c7,4.9,16.7,8.1,28.9,9.7c12.2,1.6,27.9,1,46.9-1.6c19-2.7,34.6-6.5,46.9-11.5c12.3-5,21.9-11,29-17.8
		c7.1-6.8,12-14.6,14.7-23.2c2.8-8.7,4.2-18,4.2-28.2l0.3-163.6c0-4.2-0.9-7.1-2.6-8.7C787.6,1118.5,784.8,1117.9,780.9,1118.5"/>
	<path class="st2" d="M974.3,1090.6l-48.1,6.8c-3.9,0.5-6.7,1.9-8.4,4c-1.7,2.1-2.6,5.3-2.6,9.5l-0.3,150.4c0,4.4-1.2,8.3-3.5,11.6
		c-2.4,3.3-7.9,5.6-16.7,6.8c-9.4,1.3-15.4,0.7-17.9-1.9c-2.6-2.6-3.8-6.1-3.8-10.5l0.1-40.3c0-4.2-0.9-7.1-2.6-8.7
		c-1.7-1.6-4.5-2.2-8.4-1.6l-44.4,6.2c-3.9,0.5-6.7,1.9-8.4,4c-1.7,2.1-2.6,5.3-2.6,9.5l-0.1,53.6c0,10.1,1.2,19.2,3.8,27.1
		c2.5,7.9,7.1,14.3,13.7,19.2c6.6,4.9,15.7,8.2,27.2,9.9c11.5,1.7,26.2,1.3,43.9-1.2c18-2.5,32.8-6.3,44.4-11.2
		c11.6-4.9,20.8-10.8,27.4-17.6c6.6-6.8,11.3-14.5,14-23.1c2.7-8.6,4-18,4-28.2l0.3-163.6c0-4.2-0.9-7.1-2.6-8.7
		C981,1090.6,978.1,1090,974.3,1090.6"/>
	<path class="st2" d="M1140.4,1065.8l-130.5,18.3c-3.9,0.5-6.7,1.9-8.4,4c-1.7,2.1-2.6,5.3-2.6,9.5l-0.1,40c0,4.2,0.9,7.1,2.6,8.7
		c1.7,1.6,4.5,2.2,8.4,1.6l30.3-4.3l-0.2,111.1l-30.3,4.3c-3.9,0.5-6.7,1.9-8.4,4c-1.7,2.1-2.6,5.3-2.6,9.5l-0.1,39.3
		c0,4.2,0.9,7.1,2.6,8.7c1.7,1.6,4.5,2.2,8.4,1.6l130.5-18.3c3.9-0.5,6.7-1.9,8.4-4c1.7-2.1,2.6-5.3,2.6-9.5l0.1-39.3
		c0-4.2-0.9-7.1-2.6-8.7c-1.7-1.6-4.5-2.2-8.4-1.6l-29.7,4.2l0.2-111.1l29.7-4.2c3.9-0.5,6.7-1.9,8.4-4c1.7-2.1,2.6-5.3,2.6-9.5
		l0.1-40c0-4.2-0.9-7.1-2.6-8.7C1147.1,1065.8,1144.3,1065.3,1140.4,1065.8"/>
	<path class="st3" d="M1118.4,1027.5l-130.5,18.3c-3.9,0.5-6.7,1.9-8.4,4c-1.7,2.1-2.6,5.3-2.6,9.5l-0.1,40c0,4.2,0.9,7.1,2.6,8.7
		c1.7,1.6,4.5,2.2,8.4,1.6l30.3-4.3l-0.2,111.1l-30.3,4.3c-3.9,0.5-6.7,1.9-8.4,4c-1.7,2.1-2.6,5.3-2.6,9.5l-0.1,39.3
		c0,4.2,0.9,7.1,2.6,8.7c1.7,1.6,4.5,2.2,8.4,1.6l130.5-18.3c3.9-0.5,6.7-1.9,8.4-4s2.6-5.3,2.6-9.5l0.1-39.3c0-4.2-0.9-7.1-2.6-8.7
		c-1.7-1.6-4.5-2.2-8.4-1.6l-29.7,4.2l0.2-111.1l29.7-4.2c3.9-0.5,6.7-1.9,8.4-4c1.7-2.1,2.6-5.3,2.6-9.5l0.1-40
		c0-4.2-0.9-7.1-2.6-8.7C1125.1,1027.5,1122.3,1026.9,1118.4,1027.5"/>
	<path class="st3" d="M944.3,1052.2l-48.1,6.8c-3.9,0.5-6.7,1.9-8.4,4c-1.7,2.1-2.6,5.3-2.6,9.5l-0.3,150.4c0,4.4-1.2,8.3-3.5,11.6
		c-2.4,3.3-7.9,5.6-16.7,6.8c-9.4,1.3-15.4,0.7-17.9-2c-2.5-2.6-3.8-6.1-3.8-10.5l0.1-40.3c0-4.2-0.9-7.1-2.6-8.7
		c-1.7-1.6-4.5-2.2-8.4-1.6l-44.4,6.2c-3.9,0.5-6.7,1.9-8.4,4c-1.7,2.1-2.6,5.3-2.6,9.5l-0.1,53.6c0,10.1,1.2,19.2,3.8,27.1
		c2.5,7.9,7.1,14.3,13.7,19.2c6.6,4.9,15.7,8.2,27.2,9.9c11.5,1.7,26.2,1.3,43.9-1.2c18-2.5,32.8-6.3,44.4-11.2
		c11.6-4.9,20.8-10.8,27.4-17.6c6.6-6.8,11.3-14.5,14-23.1c2.7-8.6,4-18,4-28.2l0.3-163.6c0-4.2-0.9-7.1-2.6-8.7
		C951,1052.2,948.2,1051.7,944.3,1052.2"/>
	<path class="st3" d="M753,1080.1l-46.6,6.5c-3.9,0.5-6.7,1.9-8.4,4s-2.6,5.3-2.6,9.5l-0.3,150.7c0,4.4-1.5,8.3-4.6,11.7
		c-3.1,3.4-10,5.9-20.8,7.4c-10.6,1.5-17.5,1-20.5-1.6c-3.1-2.5-4.6-6-4.6-10.4l0.3-150.7c0-4.2-0.9-7.1-2.6-8.7
		c-1.7-1.6-4.5-2.2-8.4-1.6l-48.1,6.8c-3.9,0.5-6.7,1.9-8.4,4s-2.6,5.3-2.6,9.5l-0.3,163.6c0,10.1,1.3,19.1,4.1,27
		c2.7,7.9,7.6,14.2,14.7,19.1c7,4.9,16.7,8.1,28.9,9.6c12.2,1.6,27.9,1,46.9-1.6c19-2.7,34.6-6.5,46.9-11.5c12.3-5,21.9-11,29-17.8
		c7.1-6.8,12-14.6,14.7-23.2s4.2-18,4.2-28.2l0.3-163.6c0-4.2-0.9-7.1-2.6-8.7C759.7,1080.1,756.9,1079.6,753,1080.1"/>
</g>
<g id="Слой_3">
</g>
</svg>
